<svg width="72" height="73" viewBox="0 0 72 73" fill="none" xmlns="http://www.w3.org/2000/svg">
<path d="M0 36.353C0 16.4708 16.1177 0.353027 36 0.353027V0.353027C55.8823 0.353027 72 16.4708 72 36.353V36.353C72 56.2353 55.8823 72.353 36 72.353V72.353C16.1177 72.353 0 56.2353 0 36.353V36.353Z" fill="#FF7B52"/>
<g clip-path="url(#clip0_2688_899)">
<g clip-path="url(#clip1_2688_899)">
<path d="M21.7139 39.9999C21.7139 40.3155 21.9697 40.5714 22.2853 40.5714H49.7139C50.0294 40.5714 50.2853 40.3155 50.2853 39.9999V22.2856H21.7139V39.9999Z" fill="white"/>
<path d="M51.4286 20H20.5714C20.2559 20 20 20.2559 20 20.5714C20 20.887 20.2559 21.1429 20.5714 21.1429H51.4286C51.7441 21.1429 52 20.887 52 20.5714C52 20.2559 51.7441 20 51.4286 20Z" fill="white"/>
<path d="M40.571 49.7144H36.571V42.8572H37.1424C37.458 42.8572 37.7139 42.6014 37.7139 42.2858V41.7144H34.2853V42.2858C34.2853 42.6014 34.5412 42.8572 34.8567 42.8572H35.4282V49.7144H31.4282C30.4814 49.7144 29.7139 50.4819 29.7139 51.4286V52.0001H42.2853V51.4286C42.2853 50.4819 41.5177 49.7144 40.571 49.7144Z" fill="white"/>
</g>
</g>
<defs>
<clipPath id="clip0_2688_899">
<rect width="32" height="32" fill="white" transform="translate(20 20)"/>
</clipPath>
<clipPath id="clip1_2688_899">
<rect width="32" height="32" fill="white" transform="translate(20 20)"/>
</clipPath>
</defs>
</svg>
