<svg width="133" height="52" viewBox="0 0 133 52" fill="none" xmlns="http://www.w3.org/2000/svg">
<path d="M0 5C0 2.23858 2.23858 0 5 0H128C130.761 0 133 2.23858 133 5V47C133 49.7614 130.761 52 128 52H5C2.23857 52 0 49.7614 0 47V5Z" fill="#8D5CF6"/>
<path d="M41.9358 23.09V21.214H47.0318V27.598C47.0318 28.7647 46.7284 29.6373 46.1218 30.216C45.5244 30.7947 44.7544 31.084 43.8118 31.084C42.6358 31.084 41.6091 30.6313 40.7318 29.726L41.8658 28.158C42.4538 28.7927 43.0698 29.11 43.7138 29.11C44.0218 29.11 44.2831 28.9933 44.4978 28.76C44.7218 28.5173 44.8338 28.158 44.8338 27.682V23.09H41.9358ZM50.898 27.234C50.898 27.85 51.0707 28.354 51.416 28.746C51.7707 29.1287 52.2187 29.32 52.76 29.32C53.3107 29.32 53.7587 29.1287 54.104 28.746C54.4587 28.354 54.636 27.85 54.636 27.234C54.636 26.618 54.4587 26.114 54.104 25.722C53.7587 25.33 53.3107 25.134 52.76 25.134C52.2187 25.134 51.7707 25.33 51.416 25.722C51.0707 26.114 50.898 26.618 50.898 27.234ZM56.75 27.234C56.75 28.326 56.372 29.2453 55.616 29.992C54.86 30.7387 53.908 31.112 52.76 31.112C51.6214 31.112 50.674 30.7387 49.918 29.992C49.162 29.2453 48.784 28.326 48.784 27.234C48.784 26.142 49.162 25.2227 49.918 24.476C50.674 23.72 51.6214 23.342 52.76 23.342C53.908 23.342 54.86 23.72 55.616 24.476C56.372 25.2227 56.75 26.142 56.75 27.234ZM60.6098 31H58.5098V23.468H60.6098V31ZM58.6778 22.516C58.4445 22.2733 58.3278 21.9793 58.3278 21.634C58.3278 21.2887 58.4445 20.9993 58.6778 20.766C58.9205 20.5233 59.2145 20.402 59.5598 20.402C59.9052 20.402 60.1945 20.5233 60.4278 20.766C60.6705 20.9993 60.7918 21.2887 60.7918 21.634C60.7918 21.9793 60.6705 22.2733 60.4278 22.516C60.1945 22.7493 59.9052 22.866 59.5598 22.866C59.2145 22.866 58.9205 22.7493 58.6778 22.516ZM64.8977 26.8V31H62.7977V23.468H64.8977V24.308C65.5324 23.664 66.2464 23.342 67.0397 23.342C67.833 23.342 68.4957 23.622 69.0277 24.182C69.569 24.742 69.8397 25.4887 69.8397 26.422V31H67.7397V26.744C67.7397 25.5867 67.315 25.008 66.4657 25.008C66.0457 25.008 65.677 25.162 65.3597 25.47C65.0517 25.7687 64.8977 26.212 64.8977 26.8ZM78.6305 28.48C78.9945 28.928 79.4845 29.152 80.1005 29.152C80.7165 29.152 81.2019 28.928 81.5565 28.48C81.9205 28.0227 82.1025 27.402 82.1025 26.618V21.214H84.2865V26.688C84.2865 28.1067 83.8945 29.1987 83.1105 29.964C82.3265 30.72 81.3232 31.098 80.1005 31.098C78.8779 31.098 77.8699 30.7153 77.0765 29.95C76.2925 29.1847 75.9005 28.0973 75.9005 26.688V21.214H78.0845V26.618C78.0845 27.402 78.2665 28.0227 78.6305 28.48ZM92.0228 28.662C92.0228 29.3993 91.7475 29.992 91.1968 30.44C90.6555 30.888 89.9648 31.112 89.1248 31.112C88.5648 31.112 87.9815 31.014 87.3748 30.818C86.7681 30.6127 86.2221 30.314 85.7368 29.922L86.6608 28.606C87.4448 29.2127 88.2801 29.516 89.1668 29.516C89.4375 29.516 89.6521 29.4647 89.8108 29.362C89.9695 29.25 90.0488 29.1053 90.0488 28.928C90.0488 28.7507 89.9368 28.5873 89.7128 28.438C89.4981 28.2887 89.1808 28.1487 88.7608 28.018C88.3501 27.8873 88.0328 27.7753 87.8088 27.682C87.5941 27.5887 87.3468 27.4533 87.0668 27.276C86.4975 26.9213 86.2128 26.3987 86.2128 25.708C86.2128 25.008 86.4928 24.4387 87.0528 24C87.6128 23.5613 88.3361 23.342 89.2228 23.342C90.1095 23.342 90.9961 23.6407 91.8828 24.238L91.0988 25.638C90.4455 25.19 89.7921 24.966 89.1388 24.966C88.4948 24.966 88.1728 25.1433 88.1728 25.498C88.1728 25.694 88.2755 25.848 88.4808 25.96C88.6861 26.072 89.0268 26.2027 89.5028 26.352C89.9788 26.5013 90.3148 26.618 90.5108 26.702C90.7161 26.7767 90.9588 26.898 91.2388 27.066C91.7615 27.3833 92.0228 27.9153 92.0228 28.662Z" fill="white"/>
</svg>
