<svg width="81" height="11" viewBox="0 0 81 11" fill="none" xmlns="http://www.w3.org/2000/svg">
<path d="M0.204 10.5V0.713999H2.388V8.554H6.56V10.5H0.204ZM14.675 9.408C13.8257 10.2107 12.827 10.612 11.679 10.612C10.5404 10.612 9.5977 10.262 8.85103 9.562C8.10436 8.85267 7.73103 7.90533 7.73103 6.72C7.73103 5.53467 8.10903 4.592 8.86503 3.892C9.63036 3.192 10.531 2.842 11.567 2.842C12.603 2.842 13.4804 3.15467 14.199 3.78C14.927 4.40533 15.291 5.264 15.291 6.356V7.476H9.80303C9.86836 7.88667 10.083 8.22267 10.447 8.484C10.811 8.74533 11.2217 8.876 11.679 8.876C12.4164 8.876 13.023 8.62867 13.499 8.134L14.675 9.408ZM13.163 5.978C13.1164 5.53 12.9484 5.18467 12.659 4.942C12.3697 4.69933 12.015 4.578 11.595 4.578C11.1844 4.578 10.8064 4.704 10.461 4.956C10.1157 5.208 9.91503 5.54867 9.85903 5.978H13.163ZM23.4033 10.5H21.4293V9.59C20.888 10.2713 20.216 10.612 19.4133 10.612C18.62 10.612 17.9527 10.3833 17.4113 9.926C16.87 9.45933 16.5993 8.84333 16.5993 8.078C16.5993 7.30333 16.8793 6.72467 17.4393 6.342C17.9993 5.95933 18.7647 5.768 19.7353 5.768H21.3033V5.726C21.3033 4.92333 20.8787 4.522 20.0293 4.522C19.6653 4.522 19.278 4.59667 18.8673 4.746C18.466 4.886 18.1253 5.06333 17.8453 5.278L16.9073 3.92C17.8967 3.20133 19.026 2.842 20.2953 2.842C21.21 2.842 21.9567 3.07067 22.5353 3.528C23.114 3.98533 23.4033 4.70867 23.4033 5.698V10.5ZM21.2893 7.63V7.266H19.9733C19.1333 7.266 18.7133 7.52733 18.7133 8.05C18.7133 8.32067 18.8113 8.53067 19.0073 8.68C19.2127 8.82 19.502 8.89 19.8753 8.89C20.2487 8.89 20.5753 8.778 20.8553 8.554C21.1447 8.32067 21.2893 8.01267 21.2893 7.63ZM29.4798 4.816C28.8545 4.816 28.3878 5.04 28.0798 5.488C27.7718 5.92667 27.6178 6.51 27.6178 7.238V10.5H25.5178V2.968H27.6178V3.962C27.8885 3.654 28.2245 3.39267 28.6258 3.178C29.0365 2.96333 29.4518 2.85133 29.8718 2.842L29.8858 4.816H29.4798ZM33.5737 6.3V10.5H31.4737V2.968H33.5737V3.808C34.2084 3.164 34.9224 2.842 35.7157 2.842C36.509 2.842 37.1717 3.122 37.7037 3.682C38.245 4.242 38.5157 4.98867 38.5157 5.922V10.5H36.4157V6.244C36.4157 5.08667 35.991 4.508 35.1417 4.508C34.7217 4.508 34.353 4.662 34.0357 4.97C33.7277 5.26867 33.5737 5.712 33.5737 6.3ZM53.4805 4.34L50.8345 9.688H49.5325L46.9005 4.34V10.5H44.7165V0.713999H47.6705L50.1905 6.09L52.7245 0.713999H55.6645V10.5H53.4805V4.34ZM59.7439 6.734C59.7439 7.35 59.9166 7.854 60.2619 8.246C60.6166 8.62867 61.0646 8.82 61.6059 8.82C62.1566 8.82 62.6046 8.62867 62.9499 8.246C63.3046 7.854 63.4819 7.35 63.4819 6.734C63.4819 6.118 63.3046 5.614 62.9499 5.222C62.6046 4.83 62.1566 4.634 61.6059 4.634C61.0646 4.634 60.6166 4.83 60.2619 5.222C59.9166 5.614 59.7439 6.118 59.7439 6.734ZM65.5959 6.734C65.5959 7.826 65.2179 8.74533 64.4619 9.492C63.7059 10.2387 62.7539 10.612 61.6059 10.612C60.4673 10.612 59.5199 10.2387 58.7639 9.492C58.0079 8.74533 57.6299 7.826 57.6299 6.734C57.6299 5.642 58.0079 4.72267 58.7639 3.976C59.5199 3.22 60.4673 2.842 61.6059 2.842C62.7539 2.842 63.7059 3.22 64.4619 3.976C65.2179 4.72267 65.5959 5.642 65.5959 6.734ZM71.3177 4.816C70.6924 4.816 70.2257 5.04 69.9177 5.488C69.6097 5.92667 69.4557 6.51 69.4557 7.238V10.5H67.3557V2.968H69.4557V3.962C69.7264 3.654 70.0624 3.39267 70.4637 3.178C70.8744 2.96333 71.2897 2.85133 71.7097 2.842L71.7237 4.816H71.3177ZM79.8356 9.408C78.9862 10.2107 77.9876 10.612 76.8396 10.612C75.7009 10.612 74.7582 10.262 74.0116 9.562C73.2649 8.85267 72.8916 7.90533 72.8916 6.72C72.8916 5.53467 73.2696 4.592 74.0256 3.892C74.7909 3.192 75.6916 2.842 76.7276 2.842C77.7636 2.842 78.6409 3.15467 79.3596 3.78C80.0876 4.40533 80.4516 5.264 80.4516 6.356V7.476H74.9636C75.0289 7.88667 75.2436 8.22267 75.6076 8.484C75.9716 8.74533 76.3822 8.876 76.8396 8.876C77.5769 8.876 78.1836 8.62867 78.6596 8.134L79.8356 9.408ZM78.3236 5.978C78.2769 5.53 78.1089 5.18467 77.8196 4.942C77.5302 4.69933 77.1756 4.578 76.7556 4.578C76.3449 4.578 75.9669 4.704 75.6216 4.956C75.2762 5.208 75.0756 5.54867 75.0196 5.978H78.3236Z" fill="#8D5CF6"/>
</svg>
