<svg width="72" height="73" viewBox="0 0 72 73" fill="none" xmlns="http://www.w3.org/2000/svg">
<path d="M0 36.353C0 16.4708 16.1177 0.353027 36 0.353027V0.353027C55.8823 0.353027 72 16.4708 72 36.353V36.353C72 56.2353 55.8823 72.353 36 72.353V72.353C16.1177 72.353 0 56.2353 0 36.353V36.353Z" fill="#FF7B52"/>
<g clip-path="url(#clip0_2688_909)">
<g clip-path="url(#clip1_2688_909)">
<path d="M33.5947 32.4947C33.6323 32.465 33.6716 32.4384 33.7105 32.4104C33.8096 32.339 33.9131 32.2745 34.0207 32.2172C34.0629 32.1941 34.1038 32.1711 34.1472 32.1508C35.1515 31.663 36.3506 31.8274 37.1867 32.5671C37.2308 32.6056 37.2668 32.6492 37.3085 32.6898C37.3925 32.7708 37.4716 32.8567 37.5451 32.9473C37.5868 32.9994 37.6217 33.0557 37.6576 33.1108C37.7175 33.1976 37.7726 33.2876 37.8223 33.3806C37.8544 33.4413 37.8824 33.5031 37.9099 33.5662C37.951 33.6603 37.9867 33.7569 38.0172 33.8549C38.0375 33.9208 38.0567 33.9856 38.0735 34.0523C38.0965 34.1546 38.1138 34.2578 38.1253 34.3621C38.133 34.4272 38.1426 34.4914 38.1459 34.557C38.15 34.6715 38.147 34.7859 38.1371 34.9001C38.133 34.9561 38.1336 35.0124 38.1264 35.0686C38.1036 35.2328 38.0658 35.3947 38.0139 35.552C38.0139 35.5605 38.0112 35.5684 38.0084 35.5767L39.5177 36.4481L42.3282 31.5758L26.7539 22.582L23.9434 27.4538L33.2417 32.8213C33.3496 32.7024 33.4679 32.5932 33.5947 32.4947V32.4947Z" fill="white"/>
<path d="M21.1543 27.7883L25.6512 20L26.6241 20.5618L22.1273 28.3501L21.1543 27.7883Z" fill="white"/>
<path d="M46.4883 37.872L47.0507 36.8979L50.9448 39.1464L50.3824 40.1205L46.4883 37.872Z" fill="white"/>
<path d="M41.0586 36.0343L42.7449 33.1143L46.639 35.363L44.9527 38.283L41.0586 36.0343Z" fill="white"/>
<path d="M36.6697 35.9645C36.6439 35.917 36.6113 35.8736 36.5726 35.8358C36.6612 35.7438 36.7389 35.6417 36.8037 35.5317C37.2678 34.7247 36.9936 33.6947 36.1897 33.2253C36.0741 33.1605 35.9512 33.1098 35.8238 33.0735C35.7862 33.0623 35.7475 33.0554 35.7116 33.0469C35.6191 33.0269 35.5249 33.0145 35.4305 33.0099C35.3899 33.0099 35.3501 33.0049 35.3095 33.006C35.1753 33.009 35.0419 33.028 34.912 33.0623C34.3392 33.213 33.8883 33.6551 33.7266 34.2252C33.565 34.7953 33.7165 35.4082 34.1251 35.8374C34.0867 35.8747 34.0543 35.9176 34.0285 35.9645L26.4118 51.1862C26.2732 51.4642 26.386 51.8018 26.6638 51.9407C26.9415 52.0793 27.2794 51.9667 27.418 51.6887L34.7844 36.9504V51.4376C34.7844 51.748 35.0361 51.9997 35.3465 51.9997C35.6569 51.9997 35.9086 51.748 35.9086 51.4376V36.9548L43.2723 51.6887C43.4112 51.9667 43.7488 52.0793 44.0268 51.9407C44.3046 51.8018 44.4174 51.4642 44.2785 51.1862L36.6697 35.9645Z" fill="white"/>
</g>
</g>
<defs>
<clipPath id="clip0_2688_909">
<rect width="32" height="32" fill="white" transform="translate(20 20)"/>
</clipPath>
<clipPath id="clip1_2688_909">
<rect width="32" height="32" fill="white" transform="translate(20 20)"/>
</clipPath>
</defs>
</svg>
