<svg width="39" height="11" viewBox="0 0 39 11" fill="none" xmlns="http://www.w3.org/2000/svg">
<path d="M5.348 2.104V10H3.164V2.104H0.392V0.213999H8.12V2.104H5.348ZM16.2356 8.908C15.3862 9.71067 14.3876 10.112 13.2396 10.112C12.1009 10.112 11.1582 9.762 10.4116 9.062C9.66491 8.35267 9.29158 7.40533 9.29158 6.22C9.29158 5.03467 9.66958 4.092 10.4256 3.392C11.1909 2.692 12.0916 2.342 13.1276 2.342C14.1636 2.342 15.0409 2.65467 15.7596 3.28C16.4876 3.90533 16.8516 4.764 16.8516 5.856V6.976H11.3636C11.4289 7.38667 11.6436 7.72267 12.0076 7.984C12.3716 8.24533 12.7822 8.376 13.2396 8.376C13.9769 8.376 14.5836 8.12867 15.0596 7.634L16.2356 8.908ZM14.7236 5.478C14.6769 5.03 14.5089 4.68467 14.2196 4.442C13.9302 4.19933 13.5756 4.078 13.1556 4.078C12.7449 4.078 12.3669 4.204 12.0216 4.456C11.6762 4.708 11.4756 5.04867 11.4196 5.478H14.7236ZM24.9639 10H22.9899V9.09C22.4485 9.77133 21.7765 10.112 20.9739 10.112C20.1805 10.112 19.5132 9.88333 18.9719 9.426C18.4305 8.95933 18.1599 8.34333 18.1599 7.578C18.1599 6.80333 18.4399 6.22467 18.9999 5.842C19.5599 5.45933 20.3252 5.268 21.2959 5.268H22.8639V5.226C22.8639 4.42333 22.4392 4.022 21.5899 4.022C21.2259 4.022 20.8385 4.09667 20.4279 4.246C20.0265 4.386 19.6859 4.56333 19.4059 4.778L18.4679 3.42C19.4572 2.70133 20.5865 2.342 21.8559 2.342C22.7705 2.342 23.5172 2.57067 24.0959 3.028C24.6745 3.48533 24.9639 4.20867 24.9639 5.198V10ZM22.8499 7.13V6.766H21.5339C20.6939 6.766 20.2739 7.02733 20.2739 7.55C20.2739 7.82067 20.3719 8.03067 20.5679 8.18C20.7732 8.32 21.0625 8.39 21.4359 8.39C21.8092 8.39 22.1359 8.278 22.4159 8.054C22.7052 7.82067 22.8499 7.51267 22.8499 7.13ZM33.9944 5.94V10H31.8804V5.884C31.8804 5.28667 31.787 4.848 31.6004 4.568C31.423 4.288 31.129 4.148 30.7184 4.148C30.317 4.148 29.9577 4.302 29.6404 4.61C29.3324 4.90867 29.1784 5.352 29.1784 5.94V10H27.0784V2.468H29.1784V3.322C29.757 2.66867 30.4197 2.342 31.1664 2.342C31.6424 2.342 32.0717 2.482 32.4544 2.762C32.8464 3.042 33.1404 3.38267 33.3364 3.784C33.6257 3.32667 34.013 2.972 34.4984 2.72C34.993 2.468 35.4877 2.342 35.9824 2.342C36.869 2.342 37.583 2.608 38.1244 3.14C38.6657 3.66267 38.9364 4.42333 38.9364 5.422V10H36.8224V5.884C36.8224 4.72667 36.3977 4.148 35.5484 4.148C35.1284 4.148 34.7644 4.302 34.4564 4.61C34.1484 4.90867 33.9944 5.352 33.9944 5.94Z" fill="#8D5CF6"/>
</svg>
