<svg width="68" height="12" viewBox="0 0 68 12" fill="none" xmlns="http://www.w3.org/2000/svg">
<path d="M4.256 6.842L5.992 1.214H8.274L9.996 6.842L11.942 1.214H14.308L10.892 11H9.268L7.126 4.196L4.998 11H3.374L-0.042 1.214H2.324L4.256 6.842ZM21.9778 9.908C21.1284 10.7107 20.1298 11.112 18.9818 11.112C17.8431 11.112 16.9004 10.762 16.1538 10.062C15.4071 9.35267 15.0338 8.40533 15.0338 7.22C15.0338 6.03467 15.4118 5.092 16.1678 4.392C16.9331 3.692 17.8338 3.342 18.8698 3.342C19.9058 3.342 20.7831 3.65467 21.5018 4.28C22.2298 4.90533 22.5938 5.764 22.5938 6.856V7.976H17.1058C17.1711 8.38667 17.3858 8.72267 17.7498 8.984C18.1138 9.24533 18.5244 9.376 18.9818 9.376C19.7191 9.376 20.3258 9.12867 20.8018 8.634L21.9778 9.908ZM20.4658 6.478C20.4191 6.03 20.2511 5.68467 19.9618 5.442C19.6724 5.19933 19.3178 5.078 18.8978 5.078C18.4871 5.078 18.1091 5.204 17.7638 5.456C17.4184 5.708 17.2178 6.04867 17.1618 6.478H20.4658ZM26.4081 11H24.3081V0.611999H26.4081V11ZM32.208 9.25C32.908 9.25 33.538 8.9 34.098 8.2L35.344 9.6C34.3733 10.608 33.3233 11.112 32.194 11.112C31.0646 11.112 30.108 10.7573 29.324 10.048C28.5493 9.32933 28.162 8.396 28.162 7.248C28.162 6.09067 28.554 5.15267 29.338 4.434C30.1313 3.706 31.0693 3.342 32.152 3.342C32.6933 3.342 33.2393 3.454 33.79 3.678C34.35 3.902 34.84 4.23333 35.26 4.672L34.168 6.1C33.9253 5.81067 33.6266 5.58667 33.272 5.428C32.9266 5.26933 32.5813 5.19 32.236 5.19C31.6853 5.19 31.2093 5.372 30.808 5.736C30.416 6.09067 30.22 6.59 30.22 7.234C30.22 7.86867 30.416 8.36333 30.808 8.718C31.2093 9.07267 31.676 9.25 32.208 9.25ZM38.5013 7.234C38.5013 7.85 38.674 8.354 39.0193 8.746C39.374 9.12867 39.822 9.32 40.3633 9.32C40.914 9.32 41.362 9.12867 41.7073 8.746C42.062 8.354 42.2393 7.85 42.2393 7.234C42.2393 6.618 42.062 6.114 41.7073 5.722C41.362 5.33 40.914 5.134 40.3633 5.134C39.822 5.134 39.374 5.33 39.0193 5.722C38.674 6.114 38.5013 6.618 38.5013 7.234ZM44.3533 7.234C44.3533 8.326 43.9753 9.24533 43.2193 9.992C42.4633 10.7387 41.5113 11.112 40.3633 11.112C39.2247 11.112 38.2773 10.7387 37.5213 9.992C36.7653 9.24533 36.3873 8.326 36.3873 7.234C36.3873 6.142 36.7653 5.22267 37.5213 4.476C38.2773 3.72 39.2247 3.342 40.3633 3.342C41.5113 3.342 42.4633 3.72 43.2193 4.476C43.9753 5.22267 44.3533 6.142 44.3533 7.234ZM53.0291 6.94V11H50.9151V6.884C50.9151 6.28667 50.8218 5.848 50.6351 5.568C50.4578 5.288 50.1638 5.148 49.7531 5.148C49.3518 5.148 48.9925 5.302 48.6751 5.61C48.3671 5.90867 48.2131 6.352 48.2131 6.94V11H46.1131V3.468H48.2131V4.322C48.7918 3.66867 49.4545 3.342 50.2011 3.342C50.6771 3.342 51.1065 3.482 51.4891 3.762C51.8811 4.042 52.1751 4.38267 52.3711 4.784C52.6605 4.32667 53.0478 3.972 53.5331 3.72C54.0278 3.468 54.5225 3.342 55.0171 3.342C55.9038 3.342 56.6178 3.608 57.1591 4.14C57.7005 4.66267 57.9711 5.42333 57.9711 6.422V11H55.8571V6.884C55.8571 5.72667 55.4325 5.148 54.5831 5.148C54.1631 5.148 53.7991 5.302 53.4911 5.61C53.1831 5.90867 53.0291 6.352 53.0291 6.94ZM66.6047 9.908C65.7554 10.7107 64.7567 11.112 63.6087 11.112C62.4701 11.112 61.5274 10.762 60.7807 10.062C60.0341 9.35267 59.6607 8.40533 59.6607 7.22C59.6607 6.03467 60.0387 5.092 60.7947 4.392C61.5601 3.692 62.4607 3.342 63.4967 3.342C64.5327 3.342 65.4101 3.65467 66.1287 4.28C66.8567 4.90533 67.2207 5.764 67.2207 6.856V7.976H61.7327C61.7981 8.38667 62.0127 8.72267 62.3767 8.984C62.7407 9.24533 63.1514 9.376 63.6087 9.376C64.3461 9.376 64.9527 9.12867 65.4287 8.634L66.6047 9.908ZM65.0927 6.478C65.0461 6.03 64.8781 5.68467 64.5887 5.442C64.2994 5.19933 63.9447 5.078 63.5247 5.078C63.1141 5.078 62.7361 5.204 62.3907 5.456C62.0454 5.708 61.8447 6.04867 61.7887 6.478H65.0927Z" fill="#8D5CF6"/>
</svg>
